<?xml version="1.0" encoding="UTF-8"?>
<!DOCTYPE svg PUBLIC "-//W3C//DTD SVG 1.1//EN" "http://www.w3.org/Graphics/SVG/1.1/DTD/svg11.dtd">
<!-- Creator: CorelDRAW X6 -->
<svg xmlns="http://www.w3.org/2000/svg" xml:space="preserve" width="109.971mm" height="39.3442mm" version="1.1" style="shape-rendering:geometricPrecision; text-rendering:geometricPrecision; image-rendering:optimizeQuality; fill-rule:evenodd; clip-rule:evenodd"
viewBox="0 0 5963 2133"
 xmlns:xlink="http://www.w3.org/1999/xlink">
 <defs>
  <style type="text/css">
   <![CDATA[
    .fil4 {fill:#00A4EF}
    .fil3 {fill:#7FBA00}
    .fil2 {fill:#F25022}
    .fil5 {fill:#FFB900}
    .fil1 {fill:white}
    .fil0 {fill:black;fill-opacity:0.149020}
   ]]>
  </style>
 </defs>
 <g id="Слой_x0020_1">
  <metadata id="CorelCorpID_0Corel-Layer"/>
  <g id="background">
   <polygon class="fil0" points="0,2133 5963,2133 5963,0 0,0 "/>
  </g>
  <path class="fil1" d="M2783 1110c0,-17 6,-31 18,-42 12,-12 27,-18 44,-18 18,0 33,6 45,18 12,12 18,26 18,42 0,17 -6,31 -18,42 -12,12 -27,17 -45,17 -18,0 -32,-5 -44,-17 -12,-11 -18,-25 -18,-42m113 564l-103 0 0 -437 103 0 0 437z"/>
  <path class="fil1" d="M3208 1599c16,0 33,-3 51,-11 18,-7 35,-16 51,-28l0 96c-16,9 -35,17 -56,21 -21,5 -44,8 -69,8 -64,0 -116,-21 -157,-61 -40,-41 -60,-93 -60,-156 0,-71 21,-129 62,-174 41,-46 99,-68 174,-68 20,0 39,2 59,7 20,5 35,11 47,17l0 99c-16,-12 -32,-21 -49,-27 -16,-6 -33,-10 -51,-10 -40,0 -73,14 -98,40 -25,26 -37,62 -37,107 0,44 12,78 36,103 24,25 56,37 97,37z"/>
  <path class="fil1" d="M3603 1229c8,0 16,1 22,2 7,1 12,3 17,4l0 105c-6,-4 -14,-8 -24,-12 -10,-3 -23,-5 -37,-5 -26,0 -47,11 -64,32 -18,21 -27,54 -27,98l0 221 -103 0 0 -437 103 0 0 69 2 0c9,-24 24,-43 43,-56 19,-14 41,-21 68,-21z"/>
  <path class="fil1" d="M3647 1462c0,-73 21,-130 62,-172 40,-42 97,-64 170,-64 68,0 121,21 160,62 38,40 58,95 58,164 0,71 -21,128 -62,170 -41,42 -96,63 -166,63 -68,0 -122,-20 -162,-60 -40,-40 -60,-94 -60,-163m108 -4c0,46 10,81 31,105 20,24 50,36 89,36 37,0 65,-12 85,-36 20,-24 29,-60 29,-107 0,-47 -10,-83 -30,-107 -20,-24 -49,-36 -85,-36 -38,0 -67,13 -88,38 -21,25 -31,61 -31,107z"/>
  <path class="fil1" d="M4250 1352c0,14 4,26 14,34 9,9 30,19 62,32 41,16 70,35 86,55 17,21 25,46 25,75 0,41 -16,74 -47,99 -32,25 -75,38 -128,38 -19,0 -39,-3 -61,-7 -22,-4 -40,-10 -56,-17l0 -101c19,13 39,23 61,31 21,8 41,12 59,12 23,0 40,-4 51,-10 11,-7 16,-18 16,-33 0,-14 -5,-26 -17,-36 -11,-10 -33,-21 -65,-34 -38,-16 -65,-34 -81,-53 -16,-20 -24,-45 -24,-76 0,-39 16,-72 47,-97 32,-26 72,-38 122,-38 16,0 33,1 52,5 19,3 35,8 47,13l0 98c-13,-9 -29,-17 -47,-24 -18,-6 -36,-9 -54,-9 -20,0 -35,3 -46,11 -11,8 -16,18 -16,32z"/>
  <path class="fil1" d="M4482 1462c0,-73 21,-130 62,-172 40,-42 97,-64 170,-64 68,0 121,21 160,62 38,40 58,95 58,164 0,71 -21,128 -62,170 -41,42 -96,63 -166,63 -68,0 -122,-20 -162,-60 -40,-40 -60,-94 -60,-163m107 -4c0,46 11,81 32,105 20,24 50,36 88,36 38,0 66,-12 86,-36 20,-24 29,-60 29,-107 0,-47 -10,-83 -30,-107 -20,-24 -49,-36 -85,-36 -38,0 -67,13 -88,38 -21,25 -32,61 -32,107z"/>
  <path class="fil1" d="M5272 1321l0 224c0,47 11,82 33,105 21,23 54,35 97,35 15,0 30,-2 45,-5 15,-3 26,-7 33,-10l0 -85c-7,4 -14,7 -22,10 -9,3 -16,4 -22,4 -21,0 -36,-5 -46,-17 -10,-11 -15,-30 -15,-57l0 -204 105 0 0 -84 -105 0 0 -130 -103 31 0 99 -153 0 0 -53c0,-26 6,-46 17,-60 12,-13 28,-20 50,-20 11,0 21,1 29,4 9,3 15,5 18,7l0 -88c-7,-3 -16,-5 -25,-6 -10,-1 -21,-2 -33,-2 -47,0 -86,15 -116,44 -29,29 -44,67 -44,113l0 61 -74 0 0 84 74 0 0 353 104 0 0 -353 153 0z"/>
  <polygon class="fil1" points="2694,1064 2694,1674 2588,1674 2588,1196 2587,1196 2397,1674 2327,1674 2133,1196 2132,1196 2132,1674 2034,1674 2034,1064 2186,1064 2361,1516 2364,1516 2549,1064 "/>
  <rect class="fil2" x="407" y="460" width="577" height="577"/>
  <rect class="fil3" x="1044" y="460" width="577" height="577"/>
  <rect class="fil4" x="407" y="1097" width="577" height="577"/>
  <rect class="fil5" x="1044" y="1097" width="577" height="577"/>
  <path class="fil1" d="M2260 811c-12,6 -26,11 -44,15 -17,4 -35,5 -54,5 -33,0 -62,-7 -88,-21 -25,-15 -44,-35 -58,-62 -14,-26 -20,-56 -20,-91 0,-36 7,-68 23,-97 15,-29 37,-51 64,-67 28,-15 59,-23 93,-23 33,0 61,5 84,14l0 51c-26,-14 -53,-21 -84,-21 -25,0 -47,6 -67,17 -19,12 -34,28 -45,50 -11,21 -16,45 -16,72 0,41 11,73 33,98 21,24 51,36 87,36 36,0 66,-8 92,-24l0 48z"/>
  <polygon class="fil1" points="2543,825 2478,825 2374,706 2373,706 2373,825 2325,825 2325,576 2373,576 2373,689 2374,689 2473,576 2535,576 2424,696 "/>
  <path class="fil1" d="M2766 825l-48 0 0 -36 -1 0c-17,28 -42,42 -75,42 -24,0 -43,-6 -58,-19 -14,-13 -21,-31 -21,-54 0,-47 28,-75 84,-82l72 -10c0,-38 -17,-57 -50,-57 -29,0 -56,9 -82,29l0 -46c27,-15 56,-23 87,-23 61,0 92,32 92,96l0 160 0 0zm-47 -124l-57 8c-18,3 -31,7 -39,14 -8,7 -12,17 -12,31 0,12 4,21 12,28 8,7 19,10 32,10 19,0 34,-6 46,-19 12,-13 18,-29 18,-48l0 -24z"/>
  <path class="fil1" d="M3038 825l-48 0 0 -105c-29,16 -56,24 -82,24 -26,0 -47,-7 -60,-22 -14,-14 -21,-36 -21,-64l0 -82 48 0 0 76c0,18 4,31 11,39 7,8 18,12 33,12 23,0 46,-7 71,-20l0 -107 48 0 0 249z"/>
  <path class="fil1" d="M3301 825l-47 0 0 -36 -1 0c-18,28 -43,42 -76,42 -24,0 -43,-6 -57,-19 -15,-13 -22,-31 -22,-54 0,-47 28,-75 85,-82l71 -10c0,-38 -17,-57 -49,-57 -30,0 -57,9 -83,29l0 -46c27,-15 56,-23 87,-23 62,0 92,32 92,96l0 160zm-47 -124l-57 8c-18,3 -30,7 -39,14 -8,7 -12,17 -12,31 0,12 4,21 12,28 8,7 19,10 33,10 18,0 33,-6 45,-19 12,-13 18,-29 18,-48l0 -24z"/>
  <polygon class="fil1" points="3533,615 3461,615 3461,825 3413,825 3413,615 3341,615 3341,576 3533,576 3533,615 "/>
  <path class="fil1" d="M3782 746c0,24 -8,43 -23,57 -15,15 -35,22 -59,22l-119 0 0 -249 48 0 0 94 69 0c26,0 47,7 61,21 15,13 23,32 23,55zm-50 1c0,-26 -16,-39 -49,-39l-54 0 0 80 54 0c17,0 29,-3 37,-10 8,-7 12,-17 12,-31z"/>
  <path class="fil1" d="M3962 943c-13,0 -23,-1 -30,-4l0 -42c8,4 17,6 25,6 20,0 35,-12 45,-34l18 -44 -98 -249 54 0 63 184c2,7 4,14 5,21l1 0c1,-6 3,-13 5,-21l66 -184 50 0 -112 284c-12,31 -25,52 -39,64 -14,12 -32,19 -53,19z"/>
 </g>
</svg>
