<?xml version="1.0" encoding="UTF-8"?>
<!DOCTYPE svg PUBLIC "-//W3C//DTD SVG 1.1//EN" "http://www.w3.org/Graphics/SVG/1.1/DTD/svg11.dtd">
<!-- Creator: CorelDRAW X6 -->
<svg xmlns="http://www.w3.org/2000/svg" xml:space="preserve" width="123.784mm" height="36.6652mm" version="1.1" style="shape-rendering:geometricPrecision; text-rendering:geometricPrecision; image-rendering:optimizeQuality; fill-rule:evenodd; clip-rule:evenodd"
viewBox="0 0 7495 2220"
 xmlns:xlink="http://www.w3.org/1999/xlink">
 <defs>
  <style type="text/css">
   <![CDATA[
    .fil1 {fill:#FEFEFE}
    .fil0 {fill:black;fill-opacity:0.149020}
    .fil3 {fill:url(#id0);fill-rule:nonzero}
    .fil2 {fill:url(#id1);fill-rule:nonzero}
    .fil5 {fill:url(#id2);fill-rule:nonzero}
    .fil4 {fill:url(#id3);fill-rule:nonzero}
   ]]>
  </style>
  <linearGradient id="id0" gradientUnits="userSpaceOnUse" x1="616.479" y1="878.621" x2="1362.76" y2="878.621">
   <stop offset="0" style="stop-color:#4BC3AE"/>
   <stop offset="1" style="stop-color:#DDE899"/>
  </linearGradient>
  <linearGradient id="id1" gradientUnits="userSpaceOnUse" x1="1107.48" y1="594.095" x2="1107.48" y2="1725.49">
   <stop offset="0" style="stop-color:#1F7CAF"/>
   <stop offset="0.45098" style="stop-color:#40BDC1"/>
   <stop offset="1" style="stop-color:#62FFD4"/>
  </linearGradient>
  <linearGradient id="id2" gradientUnits="userSpaceOnUse" x1="990.378" y1="1163.15" x2="990.378" y2="1725.49">
   <stop offset="0" style="stop-color:#EB3F3D"/>
   <stop offset="0.45098" style="stop-color:#C23A7F"/>
   <stop offset="1" style="stop-color:#9934C1"/>
  </linearGradient>
  <linearGradient id="id3" gradientUnits="userSpaceOnUse" x1="1412.22" y1="984.862" x2="1412.22" y2="1337.1">
   <stop offset="0" style="stop-color:#FF8777"/>
   <stop offset="0.45098" style="stop-color:#FFA676"/>
   <stop offset="1" style="stop-color:#FFC674"/>
  </linearGradient>
 </defs>
 <g id="Слой_x0020_1">
  <metadata id="CorelCorpID_0Corel-Layer"/>
  <path class="fil0" d="M309 0l6877 0c170,0 309,139 309,309l0 1602c0,170 -139,309 -309,309l-6877 0c-170,0 -309,-139 -309,-309l0 -1602c0,-170 139,-309 309,-309z"/>
  <polygon class="fil1" points="4616,764 4669,764 4669,439 4616,439 4616,568 4471,568 4471,439 4418,439 4418,764 4471,764 4471,616 4616,616 "/>
  <polygon class="fil1" points="4250,440 4060,440 4060,764 4250,764 4250,717 4114,717 4114,625 4238,625 4238,577 4114,577 4114,487 4250,487 "/>
  <polygon class="fil1" points="3802,440 3802,481 3887,481 3887,764 3940,764 3940,481 4024,481 4024,440 "/>
  <polygon class="fil1" points="3557,676 3555,675 3556,631 3556,439 3504,439 3504,764 3552,764 3711,528 3713,528 3711,575 3711,764 3765,764 3765,439 3715,439 "/>
  <path class="fil1" d="M3034 440l-56 0 106 229c-17,37 -19,64 -66,50l-15 42c32,13 85,17 112,-42l123 -279 -56 0 -72 178 -76 -178z"/>
  <path class="fil1" d="M2852 587l-48 0 0 -100 48 0c39,0 59,23 59,51 0,26 -20,49 -59,49zm-48 48l48 0c75,0 112,-44 112,-97 0,-54 -37,-99 -112,-99l-101 0 0 325 53 0 0 -129z"/>
  <polygon class="fil1" points="2710,440 2534,440 2534,764 2585,764 2585,485 2710,485 "/>
  <path class="fil1" d="M2302 629l35 -103 7 -33 3 0 7 33 36 103 -88 0zm-100 135l54 0 30 -89 120 0 32 89 54 0 -118 -327 -56 0 -116 327z"/>
  <path class="fil1" d="M1960 699c26,50 68,69 110,69 59,0 110,-38 110,-103 0,-28 -16,-59 -51,-73 30,-11 42,-42 42,-65 0,-61 -51,-92 -101,-92 -40,0 -72,15 -99,57l33 25c14,-26 43,-37 64,-37 27,0 52,15 52,48 1,24 -23,43 -43,43l-40 0 0 43 40 0c27,0 50,23 50,51 0,37 -24,56 -56,56 -28,0 -52,-10 -74,-47l-37 25z"/>
  <path class="fil1" d="M4804 629l35 -103 8 -33 2 0 7 33 37 103 -89 0zm-100 135l54 0 31 -89 120 0 32 89 53 0 -117 -327 -57 0 -116 327z"/>
  <path class="fil1" d="M3238 699c26,50 68,69 110,69 59,0 110,-38 110,-103 0,-28 -16,-59 -51,-73 30,-11 42,-42 42,-65 0,-61 -51,-92 -101,-92 -40,0 -72,15 -99,57l33 25c14,-26 42,-37 64,-37 27,0 52,15 52,48 1,24 -23,43 -43,43l-40 0 0 43 40 0c27,0 50,23 50,51 0,37 -24,56 -56,56 -28,0 -52,-10 -74,-47l-37 25z"/>
  <path class="fil1" d="M3899 1937c-29,-25 -53,-64 -67,-91l97 -42c6,12 15,30 30,46 25,27 58,46 99,46 38,0 80,-18 103,-49 20,-28 28,-63 28,-101l0 -38c-70,89 -222,77 -307,-16 -91,-99 -90,-259 2,-358 91,-90 225,-101 304,-16 0,0 1,0 1,0l0 -43 105 0 0 459c0,116 -43,182 -96,221 -39,28 -93,41 -141,41 -63,0 -116,-22 -158,-59zm-1177 -423l0 0c0,-120 91,-253 251,-253 159,0 251,133 251,253 0,121 -92,254 -251,254 -160,0 -251,-133 -251,-254zm545 0l0 0c0,-120 92,-253 251,-253 159,0 251,133 251,253 0,121 -92,254 -251,254 -159,0 -251,-133 -251,-254zm-1226 134l0 0c-152,-154 -147,-400 5,-553 76,-77 176,-115 277,-115 96,1 192,37 267,107l-75 78c-109,-105 -283,-104 -389,6 -108,112 -111,291 -3,403 109,112 289,118 398,7 36,-38 49,-86 56,-136l-255 0 0 -108 358 0c6,27 6,55 6,83 0,88 -38,182 -97,243 -68,69 -163,105 -262,104 -104,-1 -208,-41 -286,-119zm2550 45l0 0c-89,-99 -89,-261 0,-360 90,-98 243,-98 330,0 28,32 47,73 64,116l-335 141c20,40 58,78 119,78 52,0 88,-18 125,-71l88 59 0 0c-10,13 -23,27 -32,37 -89,99 -269,99 -359,0zm-225 60l0 0 0 -747 111 0 0 747 -111 0zm-1253 -239l0 0c0,-72 -51,-153 -140,-153 -89,0 -140,81 -140,153 0,73 51,153 140,153 89,0 140,-80 140,-153zm545 0l0 0c0,-72 -51,-153 -140,-153 -89,0 -140,81 -140,153 0,73 51,153 140,153 89,0 140,-80 140,-153zm533 46l0 0c1,-3 3,-10 4,-18 0,-1 1,-2 0,-2 2,-9 3,-18 2,-27 0,-9 0,-17 -2,-25 0,-2 0,-3 0,-3 -1,-8 -3,-16 -6,-23 -19,-59 -69,-101 -129,-100 -75,0 -135,69 -135,153 1,85 62,152 137,152 60,-1 110,-43 129,-107zm442 -55l0 0 223 -94c-23,-40 -60,-53 -92,-53 -85,0 -143,97 -131,147z"/>
  <path class="fil1" d="M6610 1977l0 0 112 -241 -205 -471 131 0 130 341 140 -341 116 0 -299 712 -125 0zm-535 -258l0 0c-31,-30 -48,-77 -48,-121 -1,-37 12,-76 40,-106 44,-47 111,-68 181,-68 46,0 87,10 118,27 0,-79 -62,-109 -115,-109 -48,0 -97,17 -114,61l-99 -40c18,-48 79,-121 211,-121 64,0 127,22 169,66 41,44 55,91 55,164l0 280 -109 0 0 -48c-14,17 -36,35 -59,47 -28,13 -60,18 -90,18 -50,0 -104,-16 -140,-50zm-828 34l0 0 0 -719 238 0c139,0 244,100 244,220 0,120 -100,220 -223,220l-149 0 0 279 -110 0zm580 0l0 0 0 -719 110 0 0 719 -110 0zm538 -211l0 0c-27,-18 -68,-26 -103,-26 -78,0 -122,39 -122,82 0,48 46,72 89,72 62,0 136,-52 136,-128zm-748 -285l0 0c0,-63 -49,-116 -122,-116l-138 0 0 231 144 0c65,0 116,-53 116,-115z"/>
  <path class="fil2" d="M575 1160l0 -512c0,-28 24,-54 50,-54 24,0 35,7 47,13l938 513c20,11 30,25 30,40 0,14 -10,29 -30,40l-938 513c-12,6 -23,12 -47,12 -26,0 -50,-26 -50,-54l0 -511z"/>
  <path class="fil3" d="M1185 1163l-569 -568c3,-1 6,-1 9,-1 24,0 35,7 47,13l691 378 -178 178z"/>
  <path class="fil4" d="M1358 1337l-173 -174 178 -178 247 135c20,11 30,25 30,40 0,14 -10,29 -30,40l-252 137z"/>
  <path class="fil5" d="M622 1725l1 0 562 -562 173 174 -686 376c-12,6 -23,12 -47,12 -1,0 -2,0 -3,0z"/>
 </g>
</svg>
