<?xml version="1.0" encoding="UTF-8"?>
<!DOCTYPE svg PUBLIC "-//W3C//DTD SVG 1.1//EN" "http://www.w3.org/Graphics/SVG/1.1/DTD/svg11.dtd">
<!-- Creator: CorelDRAW X6 -->
<svg xmlns="http://www.w3.org/2000/svg" xml:space="preserve" width="123.027mm" height="35.3057mm" version="1.1" style="shape-rendering:geometricPrecision; text-rendering:geometricPrecision; image-rendering:optimizeQuality; fill-rule:evenodd; clip-rule:evenodd"
viewBox="0 0 7455 2139"
 xmlns:xlink="http://www.w3.org/1999/xlink">
 <defs>
  <style type="text/css">
   <![CDATA[
    .fil1 {fill:white}
    .fil0 {fill:black;fill-opacity:0.149020}
   ]]>
  </style>
 </defs>
 <g id="Слой_x0020_1">
  <metadata id="CorelCorpID_0Corel-Layer"/>
  <path class="fil0" d="M7455 1925c0,118 -96,214 -214,214l-7026 0c-119,0 -215,-96 -215,-214l0 -1710c0,-119 96,-215 215,-215l7026 0c118,0 214,96 214,215l0 1710 0 0z"/>
  <g id="_309255368">
   <g>
    <path class="fil1" d="M1540 1058c-1,-181 148,-268 155,-272 -85,-124 -216,-141 -262,-142 -110,-12 -217,66 -273,66 -57,0 -144,-65 -237,-63 -120,2 -232,71 -293,179 -127,220 -33,543 89,720 61,87 132,184 225,181 91,-4 125,-58 235,-58 109,0 140,58 235,56 98,-2 159,-88 218,-176 70,-99 99,-197 100,-202 -3,-1 -190,-73 -192,-289z"/>
    <path class="fil1" d="M1361 527c49,-61 82,-144 73,-229 -71,3 -159,49 -210,109 -45,53 -86,139 -75,221 79,6 161,-41 212,-101z"/>
   </g>
  </g>
  <g id="_541266560">
   <path class="fil1" d="M2924 1714l-127 0 -70 -219 -242 0 -67 219 -123 0 239 -745 149 0 241 745zm-218 -310l-63 -195c-7,-20 -19,-67 -38,-140l-2 0c-7,31 -19,78 -35,140l-62 195 200 0z"/>
   <path class="fil1" d="M3541 1439c0,91 -25,164 -74,217 -45,47 -100,70 -165,70 -71,0 -122,-25 -153,-76l-2 0 0 283 -119 0 0 -579c0,-58 -2,-117 -5,-177l105 0 7 85 2 0c40,-64 100,-96 181,-96 64,0 117,25 159,75 42,50 64,116 64,198zm-122 4c0,-52 -12,-95 -35,-129 -26,-35 -61,-53 -104,-53 -30,0 -57,10 -80,29 -24,20 -40,45 -47,77 -4,15 -6,27 -6,36l0 90c0,39 12,72 36,99 24,27 55,40 93,40 45,0 80,-17 105,-52 25,-34 38,-80 38,-137z"/>
   <path class="fil1" d="M4159 1439c0,91 -25,164 -75,217 -44,47 -99,70 -164,70 -71,0 -122,-25 -153,-76l-2 0 0 283 -119 0 0 -579c0,-58 -2,-117 -5,-177l105 0 7 85 2 0c40,-64 100,-96 181,-96 64,0 117,25 159,75 42,50 64,116 64,198zm-122 4c0,-52 -12,-95 -35,-129 -26,-35 -61,-53 -104,-53 -30,0 -57,10 -81,29 -23,20 -39,45 -46,77 -4,15 -6,27 -6,36l0 90c0,39 12,72 36,99 24,27 55,40 93,40 45,0 80,-17 105,-52 25,-34 38,-80 38,-137z"/>
   <path class="fil1" d="M4850 1505c0,64 -22,115 -67,155 -48,44 -116,65 -203,65 -80,0 -144,-15 -193,-46l28 -100c52,32 110,48 173,48 45,0 79,-10 105,-31 25,-20 37,-47 37,-81 0,-30 -10,-56 -31,-76 -20,-21 -55,-40 -103,-58 -130,-49 -195,-120 -195,-214 0,-61 23,-111 68,-150 46,-39 107,-59 183,-59 68,0 124,12 169,35l-30 98c-42,-23 -89,-34 -143,-34 -42,0 -74,10 -98,30 -20,19 -30,41 -30,68 0,29 12,54 34,73 20,18 56,37 109,57 64,26 111,56 141,91 31,35 46,78 46,129z"/>
   <path class="fil1" d="M5244 1267l-131 0 0 260c0,67 23,100 69,100 22,0 39,-2 53,-6l4 91c-24,9 -55,13 -93,13 -47,0 -84,-14 -111,-43 -26,-29 -40,-77 -40,-145l0 -271 -78 0 0 -89 78 0 0 -99 118 -35 0 134 131 0 0 90z"/>
   <path class="fil1" d="M5838 1441c0,83 -24,151 -71,204 -49,54 -115,81 -197,81 -78,0 -141,-26 -188,-78 -47,-52 -70,-118 -70,-198 0,-83 24,-151 72,-204 48,-54 113,-80 195,-80 79,0 142,26 190,78 46,51 69,117 69,197zm-124 4c0,-50 -10,-92 -32,-127 -25,-43 -61,-65 -107,-65 -48,0 -85,22 -110,65 -21,35 -32,78 -32,129 0,50 11,92 32,128 26,43 62,64 109,64 45,0 81,-22 107,-65 22,-37 33,-80 33,-129z"/>
   <path class="fil1" d="M6226 1282c-12,-2 -24,-3 -38,-3 -42,0 -74,15 -97,47 -20,28 -30,64 -30,106l0 282 -119 0 1 -368c0,-62 -1,-118 -4,-169l104 0 4 103 3 0c13,-36 33,-64 60,-85 27,-20 55,-29 86,-29 11,0 21,1 30,2l0 114z"/>
   <path class="fil1" d="M6760 1420c0,22 -1,40 -4,54l-359 0c2,53 19,94 52,122 31,25 70,38 118,38 53,0 101,-9 144,-26l19 83c-51,22 -111,33 -180,33 -83,0 -149,-24 -196,-73 -48,-49 -72,-115 -72,-198 0,-81 23,-148 67,-202 46,-57 109,-86 188,-86 77,0 136,29 176,86 31,46 47,102 47,169zm-114 -31c1,-35 -7,-66 -23,-92 -21,-33 -52,-49 -95,-49 -39,0 -71,16 -95,48 -20,26 -32,57 -36,93l249 0 0 0z"/>
  </g>
  <g id="_541629688">
   <g>
    <path class="fil1" d="M2351 357c13,-7 27,-14 44,-19 16,-5 35,-8 56,-8 35,0 63,9 83,25 21,17 31,39 31,68 0,22 -7,41 -21,56 -13,15 -30,25 -51,31l0 1c11,2 22,5 32,10 11,4 20,10 28,18 7,7 14,16 18,27 5,10 7,21 7,33 0,20 -4,38 -12,51 -9,14 -19,25 -32,34 -14,9 -28,15 -45,19 -16,3 -32,5 -49,5 -17,0 -34,-1 -51,-5 -17,-4 -33,-10 -47,-18l14 -45c10,5 22,9 37,14 14,4 29,6 45,6 25,0 44,-6 58,-17 13,-11 20,-26 20,-45 0,-13 -3,-23 -8,-31 -6,-8 -13,-15 -21,-19 -9,-5 -19,-8 -30,-10 -10,-2 -21,-3 -31,-3l-25 0 0 -44 25 0c11,0 21,-2 31,-5 9,-3 18,-7 25,-12 7,-5 12,-12 16,-19 4,-7 6,-15 6,-24 0,-17 -5,-29 -17,-39 -12,-9 -27,-13 -47,-13 -13,0 -27,2 -40,6 -13,4 -25,9 -36,14l-13 -42z"/>
    <path class="fil1" d="M2818 702l-4 -30 -2 0c-18,24 -43,36 -77,36 -12,0 -23,-2 -33,-6 -10,-4 -18,-9 -25,-16 -8,-7 -13,-15 -17,-24 -4,-10 -6,-20 -6,-31 0,-33 13,-58 40,-75 27,-16 65,-24 114,-24l0 -5c0,-35 -18,-52 -55,-52 -26,0 -49,6 -68,19l-12 -38c24,-15 54,-23 90,-23 69,0 104,36 104,109l0 97c0,28 1,49 4,63l-53 0 0 0zm-8 -131c-33,0 -57,4 -73,12 -16,9 -24,22 -24,41 0,14 3,24 11,31 7,7 17,10 29,10 7,0 14,-1 21,-4 7,-2 13,-6 18,-11 5,-4 10,-10 13,-17 3,-7 5,-14 5,-21l0 -41z"/>
    <polygon class="fil1" points="3150,438 3150,487 3040,487 3040,702 2981,702 2981,438 "/>
    <path class="fil1" d="M3485 567c0,21 -2,40 -8,58 -6,17 -14,32 -24,44 -11,13 -23,22 -37,29 -15,7 -30,10 -48,10 -35,0 -60,-12 -75,-37l-1 0 0 139 -59 0 0 -285c0,-14 0,-28 0,-42 -1,-15 -1,-29 -2,-45l52 0 3 42 1 0c20,-31 49,-47 89,-47 16,0 30,3 43,10 14,6 25,15 35,27 10,12 17,26 23,42 6,17 8,35 8,55zm-59 2c0,-13 -2,-25 -5,-36 -3,-11 -8,-20 -13,-28 -6,-8 -14,-14 -22,-19 -9,-4 -18,-6 -29,-6 -8,0 -16,2 -24,5 -8,4 -15,9 -21,15 -6,6 -11,13 -14,22 -4,9 -6,18 -6,28l0 44c0,10 2,19 5,27 3,8 7,16 13,22 5,6 12,11 20,14 8,4 16,5 26,5 22,0 39,-8 51,-25 12,-17 19,-39 19,-68z"/>
    <path class="fil1" d="M3801 438l-67 183c-16,44 -32,79 -47,107 -15,28 -29,48 -43,61 -20,18 -42,29 -65,33l-14 -50c16,-4 30,-11 44,-23 14,-11 25,-26 33,-43 3,-6 4,-10 4,-12 0,-2 -1,-7 -3,-13l-96 -243 65 0 50 148c3,7 5,14 8,23 2,9 5,18 8,29l1 0c2,-6 4,-13 6,-22 2,-9 5,-19 8,-31l45 -147 63 0 0 0z"/>
    <path class="fil1" d="M3902 548l27 0c20,0 36,-3 46,-11 11,-7 17,-16 17,-26 0,-11 -5,-20 -14,-26 -9,-7 -22,-10 -39,-10 -10,0 -21,1 -31,5 -11,3 -21,8 -30,13l-15 -38c15,-9 30,-14 45,-17 15,-3 31,-5 46,-5 12,0 24,1 36,3 12,3 23,7 32,12 10,6 17,13 23,22 6,9 9,21 9,34 0,8 -1,16 -5,22 -3,6 -7,12 -13,17 -5,5 -11,9 -18,12 -7,3 -13,5 -20,7l0 1c8,1 17,4 25,7 8,3 15,7 22,13 6,5 12,11 16,19 4,7 6,16 6,25 0,15 -4,29 -12,39 -7,11 -17,19 -29,25 -12,6 -25,11 -39,13 -14,3 -28,4 -41,4 -16,0 -32,-1 -48,-5 -16,-3 -30,-9 -43,-16l15 -38c10,5 20,9 32,12 13,4 25,6 38,6 19,0 35,-4 45,-12 11,-8 16,-18 16,-29 0,-8 -1,-14 -5,-19 -4,-6 -9,-10 -15,-13 -7,-3 -14,-6 -23,-7 -9,-1 -18,-2 -28,-2l-28 0 0 -37z"/>
    <path class="fil1" d="M4215 438l0 94c0,21 0,40 -1,57 0,17 -1,35 -2,54l1 1c7,-14 13,-27 20,-40 7,-14 14,-27 20,-41l66 -125 76 0 0 264 -56 0 0 -93c0,-20 1,-39 2,-59 1,-19 1,-39 3,-59l-3 0c-6,16 -12,30 -19,42 -6,12 -12,25 -18,37 -11,22 -22,44 -33,65 -11,22 -23,45 -35,67l-76 0 0 -264 55 0z"/>
    <polygon class="fil1" points="4704,438 4704,487 4624,487 4624,702 4566,702 4566,487 4486,487 4486,438 "/>
    <path class="fil1" d="M5004 558c0,5 -1,10 -1,14 0,5 -1,9 -2,12l-176 0c1,25 9,45 24,58 15,14 35,21 60,21 25,0 49,-4 71,-13l9 41c-25,11 -55,16 -89,16 -20,0 -39,-3 -55,-9 -16,-7 -30,-16 -41,-27 -12,-12 -20,-26 -26,-42 -6,-16 -9,-34 -9,-55 0,-20 3,-39 9,-56 6,-17 14,-32 25,-45 11,-13 24,-22 39,-30 16,-7 33,-11 52,-11 16,0 32,3 45,9 14,6 25,15 35,26 10,11 17,24 22,40 5,15 8,32 8,51zm-56 -15c0,-21 -5,-38 -15,-51 -10,-12 -25,-19 -43,-19 -18,0 -32,7 -44,20 -12,13 -19,29 -21,50l123 0z"/>
    <path class="fil1" d="M5240 441c10,-2 24,-4 40,-5 16,-1 33,-1 50,-1 11,0 23,0 37,1 13,2 26,5 39,9 12,5 22,11 30,21 9,9 13,21 13,36 0,8 -1,16 -4,22 -3,6 -7,12 -12,16 -5,5 -11,9 -17,12 -6,3 -13,5 -20,7l1 2c19,3 35,10 47,20 12,11 18,25 18,44 0,18 -6,33 -16,44 -10,10 -22,19 -37,24 -15,6 -31,9 -47,10 -17,2 -31,3 -44,3 -15,0 -29,-1 -43,-1 -14,-1 -26,-2 -35,-3l0 -261zm56 105l30 0c9,0 18,-1 26,-2 8,-1 15,-3 21,-6 7,-3 11,-6 15,-11 3,-4 5,-10 5,-16 0,-12 -5,-21 -15,-27 -10,-5 -26,-8 -47,-8 -6,0 -11,0 -16,1 -4,0 -11,0 -19,1l0 68zm0 117c8,0 14,1 19,1 4,1 10,1 17,1 8,0 16,-1 24,-2 8,-1 16,-3 23,-6 7,-3 12,-7 16,-12 5,-6 7,-13 7,-21 0,-15 -7,-26 -20,-31 -14,-6 -32,-9 -55,-9l-31 0 0 79z"/>
   </g>
  </g>
 </g>
</svg>
