<?xml version="1.0" encoding="UTF-8"?>
<!DOCTYPE svg PUBLIC "-//W3C//DTD SVG 1.0//EN" "http://www.w3.org/TR/2001/REC-SVG-20010904/DTD/svg10.dtd">
<!-- Creator: CorelDRAW X7 -->
<svg xmlns="http://www.w3.org/2000/svg" xml:space="preserve" width="94.7586mm" height="118.453mm" version="1.0" style="shape-rendering:geometricPrecision; text-rendering:geometricPrecision; image-rendering:optimizeQuality; fill-rule:evenodd; clip-rule:evenodd"
viewBox="0 0 775 969"
 xmlns:xlink="http://www.w3.org/1999/xlink">
 <defs>
  <style type="text/css">
   <![CDATA[
    .fil0 {fill:none}
    .fil1 {fill:#FEFEFE;fill-rule:nonzero}
   ]]>
  </style>
 </defs>
 <g id="Слой_x0020_1">
  <metadata id="CorelCorpID_0Corel-Layer"/>
  <rect class="fil0" width="775" height="969"/>
  <path class="fil1" d="M388 105c107,0 204,44 274,114 70,70 113,167 113,274 0,107 -43,204 -113,274 -70,70 -167,113 -274,113 -107,0 -204,-43 -274,-113 -71,-70 -114,-167 -114,-274 0,-107 43,-204 114,-274 70,-70 167,-114 274,-114zm-13 375l0 0 0 0 -30 30c-4,4 -5,8 -5,13 0,4 1,9 5,13 3,3 8,5 13,5 4,0 9,-2 13,-5l29 -30 1 0 0 -1 135 -135c4,-4 6,-8 6,-13 0,-5 -2,-9 -5,-13 -4,-4 -9,-5 -13,-5 -5,0 -10,1 -13,5l-136 136 0 0zm-27 -9l-169 -169c-5,-5 -5,-13 0,-18 5,-4 13,-4 18,0l169 170 127 -128c9,-8 20,-12 31,-12 11,0 22,4 30,12 8,9 13,20 13,31 0,11 -5,22 -13,30 0,0 -78,78 -127,127l25 25c5,5 5,13 0,18 -5,5 -13,5 -18,0l-25 -25c-13,13 -21,21 -21,21 -8,9 -19,13 -30,13 -11,0 -22,-4 -31,-13l0 0c-8,-8 -12,-19 -12,-30 0,-11 4,-22 12,-31l21 -21 0 0zm296 -235c-65,-65 -156,-106 -256,-106 -101,0 -191,41 -257,106 -65,66 -106,157 -106,257 0,100 41,191 106,256 66,66 156,107 257,107 100,0 191,-41 256,-107 66,-65 106,-156 106,-256 0,-100 -40,-191 -106,-257z"/>
 </g>
</svg>
