<?xml version="1.0" encoding="UTF-8"?>
<!DOCTYPE svg PUBLIC "-//W3C//DTD SVG 1.0//EN" "http://www.w3.org/TR/2001/REC-SVG-20010904/DTD/svg10.dtd">
<!-- Creator: CorelDRAW X7 -->
<svg xmlns="http://www.w3.org/2000/svg" xml:space="preserve" width="110.697mm" height="118.453mm" version="1.0" style="shape-rendering:geometricPrecision; text-rendering:geometricPrecision; image-rendering:optimizeQuality; fill-rule:evenodd; clip-rule:evenodd"
viewBox="0 0 661 708"
 xmlns:xlink="http://www.w3.org/1999/xlink">
 <defs>
  <style type="text/css">
   <![CDATA[
    .fil0 {fill:none}
    .fil1 {fill:white;fill-rule:nonzero}
   ]]>
  </style>
 </defs>
 <g id="Слой_x0020_1">
  <metadata id="CorelCorpID_0Corel-Layer"/>
  <rect class="fil0" width="661" height="708"/>
  <path class="fil1" d="M0 491l0 -24c0,-41 13,-76 37,-100 24,-24 58,-37 99,-37l2 0c19,0 37,3 53,9 13,4 26,11 37,19 26,-18 61,-28 101,-28l2 0c40,0 75,10 102,29 10,-9 23,-16 37,-20 16,-6 34,-9 53,-9l2 0c42,0 76,13 99,37 24,24 37,59 37,100l0 24c0,11 -5,21 -12,28 -8,8 -19,12 -30,12l-124 0c-1,11 -6,20 -14,27 -9,9 -22,14 -35,14l-233 0c-13,0 -26,-5 -35,-14 -7,-7 -12,-16 -14,-27l-122 0c-11,0 -22,-4 -30,-12 -7,-7 -12,-17 -12,-28l0 0zm237 -117l-4 3c-4,3 -7,6 -10,9 -1,0 -1,1 -2,1 -24,25 -38,59 -39,102l0 1 0 0 0 2 0 0 0 1 0 1 0 0 0 1 0 1 0 0 0 28c0,9 3,16 9,21 5,5 13,8 22,8l233 0c9,0 17,-3 23,-8 5,-5 9,-12 9,-21l0 -28c0,-1 0,-3 -1,-4l0 0c0,-44 -14,-80 -39,-105l0 0 0 0c-4,-3 -7,-6 -11,-9l-3 -3c-24,-17 -56,-27 -93,-27l-2 0c-37,0 -69,9 -92,26l0 0zm-26 -2c1,-1 1,-1 2,-2 -8,-6 -18,-11 -28,-14 -14,-5 -30,-8 -47,-8l-2 0c-36,0 -66,12 -86,32 -21,21 -32,50 -32,87l0 24c0,6 3,11 7,15 4,4 11,7 17,7l122 0 0 -17 0 0 0 -1 0 -1 0 0 0 -2 0 -1 0 0c0,-1 0,-2 0,-4l0 0 0 -2 0 -1 0 -1 0 -1 0 0 0 -2 0 0c2,-21 6,-42 14,-61 8,-17 19,-33 33,-47l0 0 0 0 0 0zm-74 -235c23,0 44,9 60,25 15,15 24,36 24,59 0,23 -9,44 -24,60 -16,15 -37,24 -60,24 -23,0 -44,-9 -60,-24 -15,-16 -24,-37 -24,-60 0,-23 9,-44 24,-59 16,-16 37,-25 60,-25zm47 37c-12,-11 -29,-19 -47,-19 -18,0 -35,8 -47,19 -12,12 -19,29 -19,47 0,18 7,35 19,47 12,12 29,19 47,19 18,0 35,-7 47,-19 11,-12 19,-29 19,-47 0,-18 -8,-35 -19,-47zm146 -62c26,0 50,11 68,28l0 0c17,18 28,42 28,69 0,26 -11,50 -28,68l0 0c-18,18 -42,28 -68,28 -27,0 -51,-10 -68,-28l-1 0c-17,-18 -28,-42 -28,-68 0,-27 11,-51 28,-69l1 0c17,-17 41,-28 68,-28zm55 41c-14,-14 -34,-23 -55,-23 -22,0 -42,9 -56,23 -14,14 -23,34 -23,56 0,21 9,41 23,55 14,14 34,23 56,23 21,0 41,-9 55,-23 14,-14 23,-34 23,-55 0,-22 -9,-42 -23,-56zm139 -16c23,0 44,9 60,25l0 0c15,15 24,36 24,59 0,23 -9,44 -24,60l0 0c-16,15 -37,24 -60,24 -23,0 -44,-9 -59,-24l0 0c-16,-16 -25,-37 -25,-60 0,-23 9,-44 25,-59 15,-16 36,-25 59,-25zm47 37c-12,-11 -29,-19 -47,-19 -18,0 -34,8 -46,19 -12,12 -20,29 -20,47 0,18 8,35 20,47 11,12 28,19 46,19 18,0 35,-7 47,-19l0 0c12,-12 19,-29 19,-47 0,-18 -7,-35 -19,-47l0 0zm-95 182c-11,3 -20,8 -29,15 15,14 27,30 34,49 11,23 15,50 15,76l0 17 123 0c7,0 13,-3 17,-7 5,-4 7,-9 7,-15l0 -24c0,-37 -11,-66 -32,-87 -20,-20 -49,-32 -86,-32l-2 0c-17,0 -33,3 -47,8l0 0z"/>
 </g>
</svg>
