<?xml version="1.0" encoding="UTF-8"?>
<!DOCTYPE svg PUBLIC "-//W3C//DTD SVG 1.0//EN" "http://www.w3.org/TR/2001/REC-SVG-20010904/DTD/svg10.dtd">
<!-- Creator: CorelDRAW X7 -->
<svg xmlns="http://www.w3.org/2000/svg" xml:space="preserve" width="87.699mm" height="118.453mm" version="1.0" style="shape-rendering:geometricPrecision; text-rendering:geometricPrecision; image-rendering:optimizeQuality; fill-rule:evenodd; clip-rule:evenodd"
viewBox="0 0 354 478"
 xmlns:xlink="http://www.w3.org/1999/xlink">
 <defs>
  <style type="text/css">
   <![CDATA[
    .fil0 {fill:none}
    .fil1 {fill:white;fill-rule:nonzero}
   ]]>
  </style>
 </defs>
 <g id="Слой_x0020_1">
  <metadata id="CorelCorpID_0Corel-Layer"/>
  <rect class="fil0" width="354" height="478"/>
  <path class="fil1" d="M354 329l0 3 0 35c0,14 -5,27 -15,36l0 0c-9,9 -22,15 -36,15l-252 0c-14,0 -27,-6 -36,-15 -9,-9 -15,-22 -15,-36l0 -196c0,-15 6,-28 15,-37 6,-6 15,-11 24,-13l215 -68c3,-1 7,-1 11,-1 7,0 14,2 20,7 6,5 10,11 12,19 2,5 3,10 3,16l0 25 3 0c14,0 27,6 36,15l0 0c10,9 15,23 15,37l0 34 0 6 0 118 0 0zm-269 -210l202 0 0 -25c0,-4 0,-8 -1,-12 -2,-6 -5,-10 -9,-14 -4,-2 -8,-4 -12,-4 -3,0 -5,0 -8,1l-172 54 0 0zm211 122c7,0 14,3 19,8l0 0c5,5 8,12 8,20 0,7 -3,14 -8,19l0 0c-5,5 -12,8 -19,8 -8,0 -15,-3 -19,-8l0 0c-6,-5 -8,-12 -8,-19 0,-8 2,-15 8,-20 4,-5 11,-8 19,-8zm11 17c-3,-3 -7,-5 -11,-5 -5,0 -8,2 -11,5 -2,3 -4,7 -4,11 0,4 2,8 4,10 3,3 6,5 11,5 4,0 8,-2 11,-5 2,-2 4,-6 4,-10 0,-4 -2,-8 -4,-11zm35 -53l0 -34c0,-11 -5,-21 -11,-28l0 0c-8,-7 -17,-12 -28,-12l-252 0c-10,0 -20,5 -27,12 -7,7 -12,17 -12,28l0 196c0,10 5,20 12,28 7,6 17,11 27,11l252 0c10,0 20,-5 28,-11l0 0c6,-8 11,-18 11,-28l0 -34c-15,0 -30,0 -45,0 -18,0 -34,-8 -45,-19 -12,-12 -19,-28 -19,-45 0,-18 7,-34 19,-46 11,-11 27,-18 45,-18 15,0 30,0 45,0zm-45 12c-14,0 -27,6 -36,15 -10,9 -16,23 -16,37 0,14 6,27 16,36 9,10 22,15 36,15 15,0 30,0 45,0l0 -103c-15,0 -30,0 -45,0z"/>
 </g>
</svg>
